<svg width="12" height="12" viewBox="0 0 12 12" fill="none" xmlns="http://www.w3.org/2000/svg">
<g clip-path="url(#clip0_471_60)">
<path d="M11.6588 4.91837C11.7287 5.32109 11.7636 5.72912 11.763 6.13787C11.763 7.96337 11.1105 9.50687 9.975 10.5516H9.9765C8.9835 11.4689 7.6185 11.9999 6 11.9999C4.4087 11.9999 2.88258 11.3677 1.75736 10.2425C0.632141 9.11729 0 7.59117 0 5.99987C0 4.40857 0.632141 2.88245 1.75736 1.75723C2.88258 0.632011 4.4087 -0.000130513 6 -0.000130513C7.48945 -0.0175743 8.92788 0.541994 10.014 1.56137L8.301 3.27437C7.68178 2.6841 6.85537 2.36086 6 2.37437C4.43475 2.37437 3.105 3.43037 2.631 4.85237C2.37968 5.5975 2.37968 6.40449 2.631 7.14962H2.63325C3.1095 8.56937 4.437 9.62537 6.00225 9.62537C6.81075 9.62537 7.50525 9.41837 8.04375 9.05237H8.0415C8.35418 8.84522 8.62165 8.57687 8.82777 8.26351C9.03388 7.95015 9.17437 7.59827 9.24075 7.22912H6V4.91912L11.6588 4.91837Z" fill="black"/>
</g>
<defs>
<clipPath id="clip0_471_60">
<rect width="12" height="12" fill="white"/>
</clipPath>
</defs>
</svg>
